# xmcd CD database file
#
# Track frame offsets:
#	150
#	17601
#	37722
#	58174
#	80321
#	98234
#	117787
#	133371
#	151341
#	169995
#	186413
#	202726
#	221182
#	237322
#	252616
#	272447
#	287872
#	307072
#	323606
#	338261
#
# Disc length: 4750 seconds
#
# Revision: 0
# Processed by: cddbd v1.5.1PL2 Copyright (c) Steve Scherf et al.
# Submitted via: CDex 1.51
#
DISCID=1d128c14
DTITLE=Zézé di Camargo and Luciano/Eduardo Costa - Duelo Sertanejo
DYEAR=2004
DGENRE=Country
TTITLE0=Linda demais
TTITLE1=Fui Eu
TTITLE2=Coração aberto
TTITLE3=Não era prá ser assim
TTITLE4=Nosso amor é ouro
TTITLE5=Saudade bandida
TTITLE6=Não acredito
TTITLE7=Pão de Mel
TTITLE8=Ilusão
TTITLE9=Diz pro meu olhar
TTITLE10=Eu quero esse amor
TTITLE11=Dois corações e uma estória
TTITLE12=Quando o amor é prá valer
TTITLE13=É o amor
TTITLE14=Rasgando a madrugada
TTITLE15=Paguei p´ra valer
TTITLE16=Amor de violeiro
TTITLE17=Toneladas de paixão
TTITLE18=Tô indo embora- part. Gino and geno
TTITLE19=Uma grande mentira
EXTD=YEAR: 2004
EXTT0=
EXTT1=
EXTT2=
EXTT3=
EXTT4=
EXTT5=
EXTT6=
EXTT7=
EXTT8=
EXTT9=
EXTT10=
EXTT11=
EXTT12=
EXTT13=
EXTT14=
EXTT15=
EXTT16=
EXTT17=
EXTT18=
EXTT19=
PLAYORDER=
